<svg id="Capa_1" enable-background="new 0 0 512 512" height="512" viewBox="0 0 512 512" width="512" xmlns="http://www.w3.org/2000/svg"><g><circle cx="190" cy="224" r="17"/><path d="m255 433h-49v-34h161c8.284 0 15-6.716 15-15v-256c0-8.284-6.716-15-15-15h-352c-8.284 0-15 6.716-15 15v256c0 8.284 6.716 15 15 15h161v34h-49c-8.284 0-15 6.716-15 15s6.716 15 15 15h128c8.284 0 15-6.716 15-15s-6.716-15-15-15zm-120-98c-8.284 0-15-6.716-15-15v-8c0-24.986 12.986-46.983 32.551-59.641-5.988-7.888-9.551-17.714-9.551-28.359 0-25.916 21.084-47 47-47s47 21.084 47 47c0 10.257-3.313 19.751-8.911 27.487 20.326 12.504 33.911 34.949 33.911 60.513v8c0 8.284-6.716 15-15 15z"/><path d="m191 271c-20.222 0-37.071 14.715-40.402 34h80.805c-3.332-19.285-20.181-34-40.403-34z"/><path d="m412 279h100v34h-100z"/><path d="m412 384c0 24.813-20.187 45-45 45h-63v19c0 8.284 6.716 15 15 15h178c8.284 0 15-6.716 15-15v-105h-100z"/><path d="m497 49h-178c-8.284 0-15 6.716-15 15v19h63c24.813 0 45 20.187 45 45v121h100v-185c0-8.284-6.716-15-15-15zm-33 158.001c-8.284 0-15-6.715-15-15 0-8.284 6.716-15 15-15s15 6.716 15 15c0 8.285-6.716 15-15 15zm0-64c-8.284 0-15-6.715-15-15 0-8.284 6.716-15 15-15s15 6.716 15 15c0 8.285-6.716 15-15 15z"/></g></svg>